<?xml version="1.0" encoding="utf-8"?>
<!-- Generator: Adobe Illustrator 25.2.3, SVG Export Plug-In . SVG Version: 6.00 Build 0)  -->
<svg version="1.1" id="Capa_1" xmlns="http://www.w3.org/2000/svg" xmlns:xlink="http://www.w3.org/1999/xlink" x="0px" y="0px"
	 viewBox="0 0 3172.35 604.37" style="enable-background:new 0 0 3172.35 604.37;" xml:space="preserve">
<style type="text/css">
	.st0{fill:#020203;}
</style>
<g>
	<rect x="559.86" y="54.66" class="st0" width="151.25" height="549.71"/>
	<g>
		<path class="st0" d="M1101.55,52.48H949.91L752.59,601.24h125.97l37.69-104.57h190.25v-5.53l38.15,108.42h152.97L1101.55,52.48z
			 M945.89,414.77l68.21-189.16l65.88,189.16H945.89z"/>
	</g>
	<path class="st0" d="M460.39,542L285.46,296.59L472.05,53.71H313.72c0,0-129.7,171.05-162.69,207.24V54.66H0v549.71h151.03v-250
		l134.43,195.29c19.61,24.39,42.88,42.83,69.95,54.61h164.87C505.93,593.7,486.23,573.22,460.39,542z"/>
	<g>
		<path class="st0" d="M1940.23,529.61c-20,4.12-36.36,6.25-48.87,6.25c-23.87,0-41.69-6.76-53.42-20.99
			c-9.26-11.13-13.67-28.36-13.67-52.38c0-10.28,1.33-23.83,3.56-40.7c0.85-6.86,4.41-26.01,10.11-57.96
			c20.14-60.74,40.31-121.44,60.62-181.96c1.45-4.46,19.27-36.72,54.17-96.69c11.27-20.43,17.35-37.74,17.35-52.53
			c0-12.02-3.56-22.9-10.93-32.67c-49.2,55.26-89.51,126.96-120.78,214.44c0.12-0.44,0.24-0.82,0.41-1.21
			c1.26-7.61,2.06-14.35,2.06-20.38c0-34.01-18.03-57.18-54.61-69.23c-23.27-7.88-60.06-11.44-110.55-11.44h-39.29
			c-32.04,0-63.14,4.24-92.79,12.77c-29.94,8.77-59.58,21.33-89.34,37.06c8.48,14.81,12.63,28.99,12.63,42.78
			c0,15.34-5.82,33.21-16.7,54.1c-28.19,52.36-116.39,304.27-116.39,336.6c30.37-6.64,54.97-29.21,73.39-67.5
			c23.12-49.52,42.32-80.28,57.47-93.08c23.15-19.41,67.94-39.97,133.99-61.9c77.59-25.23,128.63-44.46,153.53-58.08
			c36.75-19.54,62.03-42.93,75.65-69.74c-27.03,84.5-40.58,164.48-40.58,240.08c0,31.1,8.82,54.32,26.23,69.83
			c15.59,13.52,36.41,20.55,62.49,20.55c24.89,0,50.08-6.08,75.36-17.57c25.62-11.46,45.01-25.69,58.68-42.61
			C2007.15,515.48,1983.71,520.36,1940.23,529.61z M1800.2,204.45c-0.61,4.85-1.24,7.49-1.62,8.48
			c-6.42,19.22-22.06,38.37-46.66,56.62c-19.88,14.62-41.55,25.91-64.67,34.06c-9.21,3.56-57.11,25.45-143.37,65.54
			c-33.93,16.31-63.75,27.68-89.61,35c-0.44-2.91-0.66-7.93-0.66-14.52c0-27.34,8.7-61.08,26.4-101.83
			c14.79-31.53,30.15-63.14,45.71-95.18c11.12-23.78,35.75-39.19,73.32-46c18.47-3.47,51.14-5.14,98.48-5.14
			c28.53,0,51.24,3.3,68.16,9.55c23.68,8.82,35.58,22.76,35.58,41.98C1801.27,196.14,1801.03,199.65,1800.2,204.45z"/>
	</g>
	<g>
		<path class="st0" d="M3094.57,525.42c-13.4-11.66-20.26-28.75-20.26-51.24c0-21.16,6.93-48.4,21.11-82.53
			c4.29-10.93,16.36-37.28,36.41-78.39c7.2-12.05,14.69-24.55,22.45-37.57c7.63-13.07,11.78-24.24,11.78-33.6
			c0-10.52-4.31-19.95-12.89-28.14c-8.48-8.44-18.5-12.46-29.43-12.46c-5.86,0-13.74,1.62-23.29,5.02
			c-9.77,3.42-22.78,8.73-39.19,15.85c-52.09,18.54-108.08,51.99-168.94,99.79c-71.75,57.06-107.35,107.69-107.35,152.02
			c0,14.84,4.41,28.7,13.84,41.3c9.99,14.13,24,21.16,42.03,21.16c20.84,0,49.25-9.94,85.15-29.38
			c18.88-10.15,43.94-24.38,74.87-42.3c14.69,26.18,26.13,45.93,34.78,59.12c25.62,37.96,50.63,56.94,74.87,56.94
			c20.43,0,40.96-11.78,61.86-35.17C3136.57,545.85,3110.49,539.16,3094.57,525.42z M3006.66,408.47
			c-54.73,45.16-108.88,67.55-162.16,67.55c-6.69,0-11.88-0.12-15.22-0.46c12.68-44.21,47.51-88.81,105.07-133.53
			c57.28-44.89,109.92-71.19,157.48-78.95C3091.83,313.26,3063.2,361.96,3006.66,408.47z"/>
	</g>
	<path class="st0" d="M2560.88,532.06c-18.52,0-37.11-1.84-55.43-6.47c9.6-21.21,21.21-45.33,35.46-71.84
		c12.43-22.83,25.18-45.91,38.56-69.25c9.45-16.41,30.54-30.93,63.48-43.87c19.95-7.25,32.67-13.02,38.59-17.14
		c-26.57-6.25-40.48-9.67-41.38-10.23c-11.05-4.63-19.1-14.79-24.07-29.57c-2.96-14.2-6.09-28.43-9.14-42.78
		c-3.2-14.52-9.16-26.95-18.03-38.03c-10.4-13.38-23.56-23.32-40.04-30.35c-16.36-7.05-33.6-10.67-51.31-10.67
		c-19.93,0-38.64,4.63-56.11,13.67c-17.35,8.99-29.96,21.26-37.91,37.4h9.55c8.27,0,22.69-1.72,43.29-5.07
		c20.02-3.54,35.61-5.21,46.32-5.21c16.92,0,31.22,3.64,42.66,10.96c11.56,7.42,19.75,20.43,24.68,39.12
		c2.62,8.9,3.97,16.75,3.97,23.29c0,22.45-13.84,38.35-41.33,47.46c-27.58,6.3-55,12.56-82.41,18.98
		c-33.88,8.53-55.6,22.61-65.37,42.03c8.31,1.84,18.42,3.03,29.98,3.03c9.84,0,35.46-3.2,76.84-9.55
		c16.02-2.57,29.65-3.59,41.13-3.59c-17.81,35.34-35.29,70.8-53.2,106.21c-13.11,26.66-19.92,47.39-19.92,62.63
		c0,13.79,4.8,24.67,14.57,31.82c9.94,7.25,26.39,10.88,50.12,10.88c41.67,0,84.81-7.37,129.02-21.94
		c44.16-14.35,84.59-34.01,121.05-59.02c-18.59,0-63.53,6.55-134.81,19.1C2610.01,529.61,2583.45,532.06,2560.88,532.06z"/>
	<g>
		<path class="st0" d="M2321.89,525.42c-13.57-11.66-20.6-28.75-20.6-51.24c0-21.16,7.03-48.4,21.26-82.53
			c4.53-10.93,16.48-37.28,36.24-78.39c7.44-12.05,14.81-24.55,22.45-37.57c7.97-13.07,11.78-24.24,11.78-33.6
			c0-10.52-4.29-19.95-12.73-28.14c-8.61-8.44-18.37-12.46-29.31-12.46c-5.99,0-13.74,1.62-23.34,5.02
			c-9.72,3.42-22.79,8.73-39.41,15.85c-51.77,18.54-108.1,51.99-168.6,99.79c-71.87,57.06-107.64,107.69-107.64,152.02
			c0,14.84,4.58,28.7,13.79,41.3c10.2,14.13,24.33,21.16,42.25,21.16c20.77,0,49.08-9.94,85.2-29.38
			c18.88-10.15,43.83-24.38,74.83-42.3c14.52,26.18,26.01,45.93,34.61,59.12c25.74,37.96,50.85,56.94,75.36,56.94
			c20,0,40.86-11.78,61.37-35.17C2363.48,545.85,2338.01,539.16,2321.89,525.42z M2233.83,408.47
			c-54.66,45.16-108.81,67.55-162.23,67.55c-6.76,0-11.85-0.12-15.08-0.46c12.39-44.21,47.56-88.81,105-133.53
			c57.47-44.89,109.82-71.19,157.24-78.95C2318.76,313.26,2290.28,361.96,2233.83,408.47z"/>
	</g>
</g>
</svg>
